{
    "asset" : {
        "generator" : "Khronos glTF Blender I/O v3.4.50",
        "version" : "2.0"
    },
    "scene" : 0,
    "scenes" : [
        {
            "name" : "Scene",
            "nodes" : [
                0
            ]
        }
    ],
    "nodes" : [
        {
            "mesh" : 0,
            "name" : "Albero.001_Multicolor_0",
            "rotation" : [
                -0.691910445690155,
                0,
                0,
                0.7219833135604858
            ]
        }
    ],
    "materials" : [
        {
            "doubleSided" : true,
            "name" : "Multicolor",
            "pbrMetallicRoughness" : {
                "baseColorTexture" : {
                    "index" : 0
                },
                "metallicFactor" : 0,
                "roughnessFactor" : 0.9066694378852844
            }
        }
    ],
    "meshes" : [
        {
            "name" : "Albero.001_Multicolor_0",
            "primitives" : [
                {
                    "attributes" : {
                        "POSITION" : 0,
                        "TEXCOORD_0" : 1,
                        "NORMAL" : 2
                    },
                    "indices" : 3,
                    "material" : 0
                }
            ]
        }
    ],
    "textures" : [
        {
            "sampler" : 0,
            "source" : 0
        }
    ],
    "images" : [
        {
            "bufferView" : 4,
            "mimeType" : "image/png",
            "name" : "Multicolor_baseColor"
        }
    ],
    "accessors" : [
        {
            "bufferView" : 0,
            "componentType" : 5126,
            "count" : 1764,
            "max" : [
                1.9415345191955566,
                1.5207046270370483,
                8.147293090820312
            ],
            "min" : [
                -1.3828052282333374,
                -1.6997101306915283,
                -1.1920928955078125e-07
            ],
            "type" : "VEC3"
        },
        {
            "bufferView" : 1,
            "componentType" : 5126,
            "count" : 1764,
            "type" : "VEC2"
        },
        {
            "bufferView" : 2,
            "componentType" : 5126,
            "count" : 1764,
            "type" : "VEC3"
        },
        {
            "bufferView" : 3,
            "componentType" : 5123,
            "count" : 1764,
            "type" : "SCALAR"
        }
    ],
    "bufferViews" : [
        {
            "buffer" : 0,
            "byteLength" : 21168,
            "byteOffset" : 0,
            "target" : 34962
        },
        {
            "buffer" : 0,
            "byteLength" : 14112,
            "byteOffset" : 21168,
            "target" : 34962
        },
        {
            "buffer" : 0,
            "byteLength" : 21168,
            "byteOffset" : 35280,
            "target" : 34962
        },
        {
            "buffer" : 0,
            "byteLength" : 3528,
            "byteOffset" : 56448,
            "target" : 34963
        },
        {
            "buffer" : 0,
            "byteLength" : 29488,
            "byteOffset" : 59976
        }
    ],
    "samplers" : [
        {
            "magFilter" : 9729,
            "minFilter" : 9987
        }
    ],
    "buffers" : [
        {
            "byteLength" : 89464,
            "uri" : "data:application/octet-stream;base64,"
        }
    ]
}
