{
    "asset" : {
        "generator" : "Khronos glTF Blender I/O v3.4.50",
        "version" : "2.0"
    },
    "scene" : 0,
    "scenes" : [
        {
            "name" : "Scene",
            "nodes" : [
                6
            ]
        }
    ],
    "nodes" : [
        {
            "mesh" : 0,
            "name" : "Albero_Multicolor_0",
            "translation" : [
                0,
                3.814697265625e-06,
                0
            ]
        },
        {
            "children" : [
                0
            ],
            "name" : "Albero",
            "rotation" : [
                -0.5000000596046448,
                -0.5000000596046448,
                -0.5,
                0.5
            ],
            "scale" : [
                83.90147399902344,
                83.9014663696289,
                83.90147399902344
            ],
            "translation" : [
                3232.36083984375,
                536.7859497070312,
                -803.9747314453125
            ]
        },
        {
            "mesh" : 1,
            "name" : "Piazzetta_Multicolor_0",
            "translation" : [
                0,
                3.814697265625e-06,
                0
            ]
        },
        {
            "children" : [
                2
            ],
            "name" : "Piazzetta",
            "rotation" : [
                -0.5000000596046448,
                -0.5000000596046448,
                -0.5,
                0.5
            ],
            "scale" : [
                83.90147399902344,
                83.9014663696289,
                83.90147399902344
            ],
            "translation" : [
                2735.835693359375,
                544.676513671875,
                125.55656433105469
            ]
        },
        {
            "children" : [
                1,
                3
            ],
            "name" : "RootNode"
        },
        {
            "children" : [
                4
            ],
            "name" : "map",
            "rotation" : [
                0.70710688829422,
                0,
                0,
                0.7071066498756409
            ],
            "scale" : [
                0.010000000707805157,
                0.010000001639127731,
                0.010000001639127731
            ]
        },
        {
            "children" : [
                5
            ],
            "name" : "Sketchfab_model",
            "rotation" : [
                -0.70710688829422,
                0,
                0,
                0.7071066498756409
            ],
            "scale" : [
                1.0467109680175781,
                1.0467110872268677,
                1.0467110872268677
            ]
        }
    ],
    "materials" : [
        {
            "doubleSided" : true,
            "name" : "Multicolor",
            "pbrMetallicRoughness" : {
                "baseColorTexture" : {
                    "index" : 0
                },
                "metallicFactor" : 0,
                "roughnessFactor" : 0.9066694378852844
            }
        }
    ],
    "meshes" : [
        {
            "name" : "Albero_Multicolor_0",
            "primitives" : [
                {
                    "attributes" : {
                        "POSITION" : 0,
                        "TEXCOORD_0" : 1,
                        "NORMAL" : 2
                    },
                    "indices" : 3,
                    "material" : 0
                }
            ]
        },
        {
            "name" : "Piazzetta_Multicolor_0",
            "primitives" : [
                {
                    "attributes" : {
                        "POSITION" : 4,
                        "TEXCOORD_0" : 5,
                        "NORMAL" : 6
                    },
                    "indices" : 7,
                    "material" : 0
                }
            ]
        }
    ],
    "textures" : [
        {
            "sampler" : 0,
            "source" : 0
        }
    ],
    "images" : [
        {
            "bufferView" : 4,
            "mimeType" : "image/png",
            "name" : "Multicolor_baseColor"
        }
    ],
    "accessors" : [
        {
            "bufferView" : 0,
            "componentType" : 5126,
            "count" : 21164,
            "max" : [
                23.88217544555664,
                1.5207046270370483,
                8.147293090820312
            ],
            "min" : [
                -1.3828052282333374,
                -43.56509780883789,
                -1.1920928955078125e-07
            ],
            "type" : "VEC3"
        },
        {
            "bufferView" : 1,
            "componentType" : 5126,
            "count" : 21164,
            "type" : "VEC2"
        },
        {
            "bufferView" : 2,
            "componentType" : 5126,
            "count" : 21164,
            "type" : "VEC3"
        },
        {
            "bufferView" : 3,
            "componentType" : 5123,
            "count" : 21168,
            "type" : "SCALAR"
        },
        {
            "bufferView" : 5,
            "componentType" : 5126,
            "count" : 213,
            "max" : [
                14.669707298278809,
                11.464118957519531,
                0.011327207088470459
            ],
            "min" : [
                -14.669707298278809,
                -40.128353118896484,
                -0.36256492137908936
            ],
            "type" : "VEC3"
        },
        {
            "bufferView" : 6,
            "componentType" : 5126,
            "count" : 213,
            "type" : "VEC2"
        },
        {
            "bufferView" : 7,
            "componentType" : 5126,
            "count" : 213,
            "type" : "VEC3"
        },
        {
            "bufferView" : 8,
            "componentType" : 5123,
            "count" : 324,
            "type" : "SCALAR"
        }
    ],
    "bufferViews" : [
        {
            "buffer" : 0,
            "byteLength" : 253968,
            "byteOffset" : 0,
            "target" : 34962
        },
        {
            "buffer" : 0,
            "byteLength" : 169312,
            "byteOffset" : 253968,
            "target" : 34962
        },
        {
            "buffer" : 0,
            "byteLength" : 253968,
            "byteOffset" : 423280,
            "target" : 34962
        },
        {
            "buffer" : 0,
            "byteLength" : 42336,
            "byteOffset" : 677248,
            "target" : 34963
        },
        {
            "buffer" : 0,
            "byteLength" : 29488,
            "byteOffset" : 719584
        },
        {
            "buffer" : 0,
            "byteLength" : 2556,
            "byteOffset" : 749072,
            "target" : 34962
        },
        {
            "buffer" : 0,
            "byteLength" : 1704,
            "byteOffset" : 751628,
            "target" : 34962
        },
        {
            "buffer" : 0,
            "byteLength" : 2556,
            "byteOffset" : 753332,
            "target" : 34962
        },
        {
            "buffer" : 0,
            "byteLength" : 648,
            "byteOffset" : 755888,
            "target" : 34963
        }
    ],
    "samplers" : [
        {
            "magFilter" : 9729,
            "minFilter" : 9987
        }
    ],
    "buffers" : [
        {
            "byteLength" : 756536,
            "uri" : "data:application/octet-stream;base64,"
        }
    ]
}
